<?xml version="1.0" standalone="no"?>
<!DOCTYPE svg PUBLIC "-//W3C//DTD SVG 20010904//EN"
 "http://www.w3.org/TR/2001/REC-SVG-20010904/DTD/svg10.dtd">
<svg version="1.0" xmlns="http://www.w3.org/2000/svg"
 width="512.000000pt" height="512.000000pt" viewBox="0 0 512.000000 512.000000"
 preserveAspectRatio="xMidYMid meet">

<g transform="translate(0.000000,512.000000) scale(0.100000,-0.100000)"
fill="#000000" stroke="none">
<path d="M468 4628 c-21 -17 -71 -160 -96 -279 -56 -255 -47 -470 30 -736 12
-41 11 -44 -20 -80 -278 -329 -398 -695 -379 -1162 38 -947 449 -1512 1272
-1746 587 -168 1613 -194 2306 -59 478 93 788 242 1054 509 132 132 210 240
281 389 121 257 187 554 201 907 19 467 -101 833 -379 1162 -31 36 -32 39 -20
80 77 266 86 481 30 736 -25 119 -75 262 -96 279 -38 29 -266 -2 -430 -59
-157 -56 -364 -164 -608 -318 l-52 -32 -123 25 c-287 58 -714 83 -1130 66
-275 -11 -435 -28 -625 -66 l-130 -26 -100 65 c-198 128 -421 240 -591 297
-148 49 -360 75 -395 48z m1497 -1923 c392 -29 681 -30 1075 -5 566 36 754 22
938 -68 204 -100 396 -342 458 -577 25 -94 25 -325 0 -443 -53 -250 -162 -438
-315 -542 -179 -121 -412 -200 -691 -234 -243 -30 -407 -37 -884 -37 -595 0
-835 16 -1100 72 -185 40 -418 144 -527 236 -179 152 -289 435 -289 745 0 225
81 418 256 607 138 149 284 224 489 251 101 13 369 11 590 -5z"/>
<path d="M1533 2386 c-251 -79 -337 -566 -145 -821 187 -248 475 -100 524 268
34 252 -79 502 -249 553 -55 17 -75 17 -130 0z"/>
<path d="M3453 2386 c-251 -79 -337 -566 -145 -821 187 -248 475 -100 524 268
34 252 -79 502 -249 553 -55 17 -75 17 -130 0z"/>
</g>
</svg>
